<?xml version="1.0" encoding="utf-8"?>
<!-- Generator: Adobe Illustrator 16.0.0, SVG Export Plug-In . SVG Version: 6.00 Build 0)  -->
<!DOCTYPE svg PUBLIC "-//W3C//DTD SVG 1.1//EN" "http://www.w3.org/Graphics/SVG/1.1/DTD/svg11.dtd">
<svg version="1.1" id="Capa_1" xmlns="http://www.w3.org/2000/svg" xmlns:xlink="http://www.w3.org/1999/xlink" x="0px" y="0px"
	 width="595.281px" height="841.891px" viewBox="0 0 595.281 841.891" enable-background="new 0 0 595.281 841.891"
	 xml:space="preserve">
<g>
	<path d="M463.339,103.578v152.235c0,16.055,13.017,29.073,29.073,29.073c16.058,0,29.071-13.016,29.071-29.073V103.575
		c5.639,5.493,12.95,8.253,20.271,8.253c7.439,0,14.881-2.84,20.553-8.515c11.355-11.353,11.355-29.761,0-41.114l-49.34-49.337
		c-5.452-5.45-12.844-8.515-20.555-8.515s-15.106,3.065-20.559,8.515l-49.337,49.34c-11.353,11.353-11.353,29.761,0.004,41.113
		C433.778,114.575,451.963,114.653,463.339,103.578z"/>
	<path d="M473.698,441.164c-10.121,0-20.157,1.791-29.607,5.201c-13.966-26.3-41.626-44.249-73.392-44.249
		c-7.146,0-14.08,0.842-20.702,2.425l-0.027-267.663c0-45.846-37.299-83.145-83.146-83.145c-21.971,0-42.691,8.491-58.343,23.911
		c-15.625,15.396-24.426,35.947-24.786,57.87l-0.005,0.311v0.313v24.492c-6.74-1.655-13.703-2.51-20.747-2.51
		c-45.846,0-83.144,37.301-83.144,83.147v247.78c-30.169,10.53-56.583,38.587-57.706,78.44
		c-1.752,62.255,3.368,141.051,58.974,198.243c46.909,48.244,120.206,71.698,224.082,71.698c93.525,0,162.73-27.562,205.704-81.915
		c30.184-38.178,46.137-89.587,46.137-148.671l-0.144-82.598C556.844,478.465,519.544,441.164,473.698,441.164z M305.146,799.203
		c-219.008,0-248.21-111.018-244.845-230.641c0.813-28.851,25.613-45.89,45.892-45.89v52.906c0,6.655,4.613,7.432,5.991,7.432
		c1.378,0,5.838-0.757,5.838-7.414c0-6.424,0-334.329,0-334.329c0-24.808,20.109-44.922,44.918-44.922
		c22.765,0,44.507,16.528,44.507,38.894c0.016,0.083-0.166,214.235-0.166,214.235c0,4.041,3.274,7.315,7.317,7.315
		c4.037,0,7.314-3.273,7.314-7.315V136.138c0.401-24.464,20.346-44.181,44.909-44.181c24.809,0,44.92,20.114,44.92,44.923
		l0.035,343.672c0,3.979,3.225,7.205,7.206,7.205c3.976,0,7.202-3.225,7.202-7.205l-0.014-1.861
		c0-22.588,21.949-38.354,44.524-38.354c24.811,0,44.831,20.111,44.831,44.922l0.091,32.927c0,3.871,3.14,7.01,7.007,7.01
		c3.873,0,7.01-3.139,7.01-7.01l-0.025-2.506c0-20.543,22.226-36.291,44.083-36.291c24.811,0,44.924,20.111,44.924,44.92
		l0.143,82.531C518.764,683.6,488.913,799.203,305.146,799.203z"/>
</g>
</svg>
